# xmcd
#
# Track frame offsets: 
#        150
#        19189
#        52142
#        67830
#        95346
#        117237
#        144610
#        180373
#        235432
#
# Disc length: 3288 seconds
#
# Revision: 0
# Processed by: cddbd v1.5.2PL0 Copyright (c) Steve Scherf et al.
# Submitted via: ExactAudioCopy v1.1
#
DISCID=770cd609
DTITLE=The Jan Gałach Band - The Jan Gałach Band
DYEAR=2017
DGENRE=Blues
TTITLE0=Aurora
TTITLE1=Saint Tropez
TTITLE2=Skakanka UFOistki
TTITLE3=Ostatnia Jesień
TTITLE4=Hyde
TTITLE5=Cytrynówka
TTITLE6=Night and Delight
TTITLE7=Woman
TTITLE8=Moja Historia
EXTD=
EXTT0=
EXTT1=
EXTT2=
EXTT3=
EXTT4=
EXTT5=
EXTT6=
EXTT7=
EXTT8=
PLAYORDER=
